<!DOCTYPE svg PUBLIC "-//W3C//DTD SVG 1.1//EN" "http://www.w3.org/Graphics/SVG/1.1/DTD/svg11.dtd">
<!-- Uploaded to: SVG Repo, www.svgrepo.com, Transformed by: SVG Repo Mixer Tools -->
<svg fill="#3b82f6" width="800px" height="800px" viewBox="-8.5 0 32 32" version="1.1" xmlns="http://www.w3.org/2000/svg">
<g id="SVGRepo_bgCarrier" stroke-width="0"/>
<g id="SVGRepo_tracerCarrier" stroke-linecap="round" stroke-linejoin="round"/>
<g id="SVGRepo_iconCarrier"> <title>mobile</title> <path d="M11.84 27.84h-8.32c-1.96 0-3.52-1.6-3.52-3.52v-16.64c0-1.96 1.6-3.52 3.52-3.52h8.32c1.96 0 3.52 1.6 3.52 3.52v16.64c0 1.92-1.56 3.52-3.52 3.52zM3.52 5.84c-1 0-1.84 0.84-1.84 1.84v16.64c0 1 0.84 1.84 1.84 1.84h8.32c1 0 1.84-0.84 1.84-1.84v-16.64c0-1-0.84-1.84-1.84-1.84h-8.32zM7.68 25.12c-1.52 0-2.76-1.24-2.76-2.76s1.24-2.76 2.76-2.76 2.76 1.24 2.76 2.76c0 1.52-1.24 2.76-2.76 2.76zM7.68 21.24c-0.6 0-1.080 0.48-1.080 1.080s0.48 1.080 1.080 1.080 1.080-0.48 1.080-1.080c0.040-0.56-0.48-1.080-1.080-1.080z"/> </g>
</svg>