<!DOCTYPE svg PUBLIC "-//W3C//DTD SVG 1.1//EN" "http://www.w3.org/Graphics/SVG/1.1/DTD/svg11.dtd">
<!-- Uploaded to: SVG Repo, www.svgrepo.com, Transformed by: SVG Repo Mixer Tools -->
<svg fill="#3b82f6" width="800px" height="800px" viewBox="0 0 24 24" xmlns="http://www.w3.org/2000/svg">
<g id="SVGRepo_bgCarrier" stroke-width="0"/>
<g id="SVGRepo_tracerCarrier" stroke-linecap="round" stroke-linejoin="round"/>
<g id="SVGRepo_iconCarrier">
<path d="M23,12.3v1.4a1,1,0,1,1-2,0v-.4H19.5V19h1.1a1,1,0,0,1,0,2H16.4a1,1,0,1,1,0-2h1.1V13.3H16v.4a1,1,0,0,1-2,0V12.3a1,1,0,0,1,1-1h7A1,1,0,0,1,23,12.3ZM13.556,19H11V5h6v.777a1,1,0,1,0,2,0V4a1,1,0,0,0-1-1H2A1,1,0,0,0,1,4V5.777a1,1,0,0,0,2,0V5H9V19H6.444a1,1,0,1,0,0,2h7.112a1,1,0,0,0,0-2Z"/>
</g>
</svg>